<svg width="150" height="150" viewBox="0 0 150 150" fill="none" xmlns="http://www.w3.org/2000/svg">
<path d="M113.023 37.5267H111.091C110.664 27.3652 102.289 19.2347 92.0392 19.2347H36.9819C26.4507 19.2347 17.8885 27.7972 17.8885 38.328V93.38C17.8885 103.911 26.4511 112.473 36.9819 112.473H38.9141C39.3412 122.619 47.7163 130.765 57.9661 130.765H113.018C123.549 130.765 132.111 122.203 132.111 111.672V56.62C132.111 46.0888 123.549 37.5267 113.018 37.5267H113.023ZM25.8875 93.3907V38.3387C25.8875 32.2189 30.8615 27.2449 36.9812 27.2449H92.0332C97.8717 27.2449 102.674 31.7919 103.085 37.5367H57.9493C47.4181 37.5367 38.856 46.0992 38.856 56.63V104.494H36.9601C30.8404 104.494 25.8664 99.52 25.8664 93.4003L25.8875 93.3907ZM103.142 45.5267V93.3907C103.142 99.5104 98.1681 104.484 92.0484 104.484H46.8711V56.6204C46.8711 50.5007 51.845 45.5267 57.9648 45.5267H103.142ZM124.111 111.672C124.111 117.792 119.137 122.766 113.018 122.766H57.9657C52.1272 122.766 47.3251 118.219 46.9136 112.474H92.0496C102.581 112.474 111.143 103.911 111.143 93.3807V45.526H113.039C119.159 45.526 124.133 50.5 124.133 56.6197V111.672L124.111 111.672Z" fill="white"/>
<path d="M53.9288 60.2187C53.9288 62.4323 55.7152 64.2187 57.9288 64.2187H93.2101C95.4237 64.2187 97.2101 62.4323 97.2101 60.2187C97.2101 58.0051 95.4237 56.2187 93.2101 56.2187H57.9288C55.7152 56.2187 53.9288 58.0051 53.9288 60.2187Z" fill="white"/>
<path d="M93.2048 71.4747H57.9235C55.7099 71.4747 53.9235 73.2611 53.9235 75.4747C53.9235 77.6883 55.7099 79.4747 57.9235 79.4747H93.2048C95.4184 79.4747 97.2048 77.6883 97.2048 75.4747C97.2048 73.2611 95.4184 71.4747 93.2048 71.4747Z" fill="white"/>
<path d="M93.2048 86.74H57.9235C55.7099 86.74 53.9235 88.5264 53.9235 90.74C53.9235 92.9536 55.7099 94.74 57.9235 94.74H93.2048C95.4184 94.74 97.2048 92.9536 97.2048 90.74C97.2048 88.5264 95.4184 86.74 93.2048 86.74Z" fill="white"/>
</svg>
