<svg width="150" height="150" viewBox="0 0 150 150" fill="none" xmlns="http://www.w3.org/2000/svg">
<path d="M28.0308 12.2553C23.1558 12.2553 19.1558 16.2501 19.1558 21.1303V115.218C19.1558 120.093 23.1506 124.093 28.0308 124.093H84.5361H84.5309C85.6142 124.088 86.4893 123.208 86.4839 122.124C86.4839 121.046 85.6089 120.171 84.5309 120.166H28.0309C25.2601 120.166 23.0778 117.989 23.0778 115.218V21.1301C23.0778 18.3593 25.2601 16.1823 28.0309 16.1823H98.0669C100.838 16.1823 103.004 18.3593 103.004 21.1301V62.3235H102.999C102.999 62.8391 103.202 63.3391 103.572 63.7089C103.937 64.0787 104.437 64.2871 104.952 64.2923C105.478 64.2923 105.978 64.0839 106.348 63.7142C106.718 63.3444 106.926 62.8444 106.921 62.3235V21.1302C106.921 16.2552 102.942 12.2552 98.0618 12.2552L28.0308 12.2553ZM40.7078 24.1095C37.26 24.1095 34.4266 26.9584 34.4266 30.4064V37.4845C34.4266 40.9324 37.26 43.7657 40.7078 43.7657H85.3745C88.8224 43.7657 91.6557 40.9324 91.6557 37.4845V30.4064C91.6557 26.9585 88.8224 24.1095 85.3745 24.1095H40.7078ZM40.7078 28.0313H85.3745C86.7182 28.0313 87.7338 29.0626 87.7338 30.4063V37.4844C87.7338 38.8281 86.7182 39.8437 85.3745 39.8437H40.7025C39.3588 39.8437 38.3432 38.8281 38.3432 37.4844V30.4063C38.3432 29.0625 39.3588 28.0313 40.7025 28.0313H40.7078ZM37.6714 58.6713H37.6662C36.5933 58.6765 35.7183 59.5463 35.7131 60.6244C35.7131 61.7077 36.5829 62.588 37.6662 62.5932H88.4115C88.9376 62.5932 89.4376 62.3849 89.8074 62.0203C90.1772 61.6505 90.3803 61.1453 90.3803 60.6244C90.3803 60.1035 90.172 59.6036 89.8022 59.239C89.4324 58.8744 88.9324 58.6712 88.4115 58.6712L37.6714 58.6713ZM97.8848 66.8536C96.8691 66.8432 95.7702 67.0151 94.6244 67.4838C92.3326 68.4265 91.0306 70.1036 90.2077 71.5516C89.3848 72.9994 88.8692 74.213 87.7337 75.3433C86.5983 76.4735 85.3795 76.9996 83.9263 77.8225C82.4733 78.6402 80.7857 79.9162 79.8326 82.208C78.8796 84.4997 79.1555 86.6038 79.5982 88.2132C80.041 89.8225 80.5253 91.0569 80.5253 92.661C80.5201 94.2652 80.0305 95.484 79.5826 97.0881C79.1347 98.6922 78.8587 100.802 79.8014 103.098C80.7441 105.39 82.4211 106.677 83.8691 107.5C85.317 108.322 86.5306 108.854 87.6608 109.989C88.7911 111.125 89.3223 112.328 90.14 113.781C90.2234 113.932 90.3171 114.088 90.4109 114.239V135.791L90.4057 135.786C90.4057 136.463 90.7598 137.093 91.3379 137.453C91.9161 137.807 92.6348 137.843 93.2442 137.536L105.416 131.437L116.708 137.505C117.317 137.838 118.052 137.823 118.645 137.468C119.239 137.114 119.604 136.474 119.604 135.786V114.171C119.671 114.057 119.744 113.947 119.807 113.833C120.63 112.385 121.145 111.187 122.281 110.057C123.416 108.927 124.619 108.401 126.072 107.578C127.526 106.76 129.218 105.468 130.171 103.177C131.124 100.885 130.843 98.7963 130.401 97.187C129.958 95.5777 129.489 94.3433 129.489 92.7391C129.494 91.135 129.984 89.9162 130.432 88.3121C130.88 86.7079 131.156 84.5985 130.213 82.3017C129.27 80.0099 127.578 78.7131 126.13 77.885C124.682 77.0621 123.484 76.5465 122.354 75.411C121.224 74.2756 120.697 73.0569 119.88 71.6037C119.062 70.1506 117.781 68.4578 115.489 67.5047C113.197 66.5517 111.093 66.8329 109.484 67.2756C107.875 67.7183 106.656 68.2026 105.052 68.2026C103.447 68.1974 102.229 67.7079 100.625 67.2599C99.8225 67.036 98.8953 66.8537 97.8797 66.8485L97.8848 66.8536ZM97.6764 70.7233C98.2754 70.7025 98.8327 70.8431 99.5775 71.0463C100.895 71.416 102.661 72.1244 105.046 72.1296C107.432 72.1348 109.213 71.4213 110.536 71.0567C111.854 70.6921 112.588 70.5515 113.979 71.1296C115.369 71.7077 115.801 72.3431 116.473 73.5359C117.145 74.7286 117.9 76.4943 119.583 78.1817C121.265 79.8692 123.01 80.6296 124.202 81.3068C125.39 81.9839 126.031 82.4057 126.603 83.8016C127.176 85.1923 127.031 85.9423 126.661 87.26C126.291 88.5777 125.577 90.3589 125.572 92.7444C125.567 95.1299 126.265 96.8955 126.63 98.2184C126.994 99.5361 127.14 100.286 126.557 101.677C125.978 103.067 125.343 103.495 124.15 104.166C122.958 104.838 121.208 105.599 119.52 107.281C117.833 108.963 117.072 110.708 116.395 111.901C116.275 112.114 116.161 112.302 116.051 112.484L116.041 112.474C116.01 112.52 115.978 112.567 115.952 112.614C115.468 113.364 114.968 113.849 113.89 114.291C112.499 114.864 111.749 114.713 110.431 114.349C109.114 113.979 107.343 113.27 104.957 113.265C102.572 113.26 100.791 113.958 99.473 114.323C98.1553 114.687 97.4052 114.833 96.0146 114.25C95.0875 113.864 94.5927 113.448 94.1708 112.859H94.1761C94.0875 112.661 93.9677 112.474 93.8167 112.312C93.7281 112.166 93.6344 112.015 93.5406 111.843C92.8688 110.651 92.1136 108.901 90.4313 107.213C88.749 105.525 86.9886 104.76 85.7958 104.083C84.6083 103.406 83.9833 102.984 83.4104 101.593C82.8374 100.203 82.9833 99.4525 83.3531 98.1348C83.7229 96.8171 84.4364 95.0306 84.4416 92.6452C84.4468 90.2597 83.7489 88.4785 83.3843 87.1608C83.0197 85.8431 82.8739 85.1086 83.4572 83.7181C84.0354 82.3274 84.6552 81.8952 85.8479 81.2233C87.0406 80.5514 88.8063 79.7962 90.4938 78.114C92.1813 76.4317 92.9416 74.6713 93.6188 73.4785C94.2959 72.291 94.7178 71.666 96.1136 71.093C96.723 70.843 97.2074 70.7285 97.671 70.7076L97.6764 70.7233ZM37.6711 78.0671H37.6659C36.593 78.0723 35.718 78.9421 35.7128 80.0201C35.7128 80.541 35.9159 81.041 36.2857 81.4108C36.6503 81.7754 37.1503 81.9837 37.666 81.9889H76.2233C76.7442 81.9889 77.2494 81.7858 77.6192 81.416C77.989 81.0462 78.1921 80.541 78.1921 80.0201C78.1869 79.4993 77.9786 78.9993 77.614 78.6347C77.2442 78.2701 76.7442 78.067 76.2233 78.067L37.6711 78.0671ZM104.999 80.614C98.348 80.614 92.9262 86.0515 92.9262 92.6973C92.9262 99.3484 98.348 104.781 104.999 104.781C111.65 104.781 117.082 99.3432 117.082 92.6973C117.082 86.0463 111.645 80.614 104.999 80.614ZM104.999 84.5359C109.53 84.5359 113.166 88.1661 113.166 92.7025C113.166 97.2337 109.53 100.869 104.999 100.869C100.468 100.869 96.848 97.2389 96.848 92.7025C96.848 88.1713 100.468 84.5359 104.999 84.5359ZM37.6711 97.4577H37.6659C36.5878 97.4629 35.7128 98.3432 35.7128 99.4265C35.718 100.505 36.5878 101.38 37.6659 101.385H73.2699C73.7907 101.385 74.2907 101.182 74.6605 100.812C75.0303 100.447 75.2387 99.9474 75.2387 99.4266C75.2387 98.9057 75.0355 98.4005 74.6657 98.0307C74.296 97.6661 73.7907 97.4578 73.2699 97.4578L37.6711 97.4577ZM104.958 117.187C106.562 117.192 107.781 117.682 109.385 118.13C110.989 118.578 113.098 118.859 115.395 117.911C115.494 117.864 115.588 117.822 115.682 117.781V132.499L106.374 127.505V127.51C105.812 127.203 105.135 127.192 104.567 127.479L94.3326 132.619V117.786C94.3899 117.817 94.4576 117.843 94.5201 117.869C96.8118 118.822 98.916 118.562 100.525 118.119C102.135 117.677 103.353 117.192 104.958 117.192L104.958 117.187Z" fill="white"/>
</svg>
