<svg width="150" height="150" viewBox="0 0 150 150" fill="none" xmlns="http://www.w3.org/2000/svg">
<path d="M57.6667 28.3333C54.7604 28.3333 52.3333 30.7604 52.3333 33.6667V41.6667H32.3333C24.2552 41.6667 17.6667 48.2552 17.6667 56.3333V107C17.6667 115.078 24.2552 121.667 32.3333 121.667H117.667C125.745 121.667 132.333 115.078 132.333 107V56.3333C132.333 48.2552 125.745 41.5933 117.667 41.6667H97.6667V33.6667C97.6667 30.7604 95.2396 28.3333 92.3333 28.3333H57.6667ZM57.6667 33.6667H92.3333V41.6667H57.6667V33.6667ZM32.3333 47H117.667C122.885 47 127 51.1145 127 56.3333V66.7917C116.073 72.9896 101.495 77.2605 85.1667 78.5417C83.8229 74.1876 79.776 71.0001 75 71.0001C70.224 71.0001 66.1771 74.1876 64.8333 78.5417C48.484 77.2605 33.9373 73.0001 23 66.7917V56.3333C23 51.1145 27.1145 47 32.3333 47ZM23 72.8747C34.4115 78.7809 48.7547 82.7028 64.584 83.9163C65.6309 88.6975 69.9173 92.3329 75.0007 92.3329C80.084 92.3329 84.3704 88.6975 85.4173 83.9163C101.256 82.7079 115.584 78.786 127.001 72.8747V107C127.001 112.219 122.887 116.333 117.668 116.333H32.3347C27.1159 116.333 23.0013 112.219 23.0013 107L23 72.8747ZM75 76.3331C77.9792 76.3331 80.3333 78.6872 80.3333 81.6664C80.3333 84.6456 77.9792 86.9997 75 86.9997C72.0208 86.9997 69.6667 84.6456 69.6667 81.6664C69.6667 78.6872 72.0208 76.3331 75 76.3331Z" fill="white"/>
</svg>
