<svg width="150" height="150" viewBox="0 0 150 150" fill="none" xmlns="http://www.w3.org/2000/svg">
<path d="M135.416 60.7786V39.2266C137.844 38.3672 139.583 36.0495 139.583 33.3359C139.583 29.888 136.781 27.0859 133.333 27.0859C131.776 27.0859 130.349 27.6588 129.255 28.6067L110.318 17.7838C110.385 17.4192 110.422 17.0494 110.422 16.6692C110.422 13.2213 107.62 10.4192 104.172 10.4192C100.724 10.4192 97.9218 13.2213 97.9218 16.6692C97.9218 17.0494 97.9583 17.4192 98.026 17.7838L79.0887 28.6067C77.9845 27.6588 76.5575 27.0859 75.0001 27.0859C73.4428 27.0859 72.0157 27.6588 70.922 28.6067L51.9793 17.7838C52.0471 17.4192 52.0835 17.0494 52.0835 16.6692C52.0835 13.2213 49.2814 10.4192 45.8335 10.4192C42.3856 10.4192 39.5835 13.2213 39.5835 16.6692C39.5835 17.0494 39.62 17.4192 39.6877 17.7838L20.745 28.6067C19.6513 27.6588 18.2242 27.0859 16.6669 27.0859C13.219 27.0859 10.4169 29.888 10.4169 33.3359C10.4169 36.0495 12.1565 38.3671 14.5835 39.2266V60.7786C12.1565 61.638 10.4169 63.9556 10.4169 66.6692C10.4169 70.1171 13.219 72.9192 16.6669 72.9192C18.2242 72.9192 19.6513 72.3463 20.745 71.3985L39.6823 82.2214C39.6146 82.5808 39.5782 82.9558 39.5782 83.336C39.5782 86.0496 41.3178 88.3672 43.7448 89.2266V110.773C41.3178 111.633 39.5782 113.95 39.5782 116.664C39.5782 120.112 42.3803 122.914 45.8282 122.914C47.3855 122.914 48.8074 122.341 49.9063 121.393L68.849 132.216C68.7865 132.581 68.75 132.95 68.75 133.331C68.75 136.779 71.5521 139.581 75 139.581C78.4479 139.581 81.25 136.779 81.25 133.331C81.25 132.95 81.2136 132.581 81.1511 132.216L100.094 121.393C101.187 122.336 102.615 122.914 104.172 122.914C107.62 122.914 110.422 120.112 110.422 116.664C110.422 113.95 108.682 111.633 106.255 110.773V89.2266C108.682 88.3673 110.422 86.0496 110.422 83.336C110.422 82.9558 110.385 82.586 110.318 82.2214L129.255 71.3985C130.349 72.3464 131.776 72.9192 133.333 72.9192C136.781 72.9192 139.583 70.1171 139.583 66.6692C139.583 63.9556 137.844 61.638 135.416 60.7786ZM127.083 66.6692C127.083 67.0495 127.12 67.4193 127.187 67.7838L108.25 78.6068C107.151 77.6588 105.724 77.086 104.167 77.086C102.609 77.086 101.182 77.6589 100.089 78.6068L81.1512 67.7838C81.2189 67.4193 81.2553 67.0495 81.2553 66.6692C81.2553 63.9556 79.5157 61.638 77.0887 60.7786V39.2266C79.5157 38.3672 81.2553 36.0495 81.2553 33.3359C81.2553 32.9557 81.2189 32.5859 81.1512 32.2213L100.089 21.3984C101.182 22.3463 102.609 22.9192 104.167 22.9192C105.724 22.9192 107.151 22.3463 108.245 21.3984L127.182 32.2213C127.12 32.5859 127.083 32.9557 127.083 33.3359C127.083 36.0495 128.823 38.3671 131.25 39.2266V60.7786C128.823 61.638 127.083 63.9556 127.083 66.6692ZM97.9165 116.669C97.9165 117.049 97.9529 117.424 98.0206 117.784L79.0833 128.607C77.9844 127.659 76.5573 127.086 75 127.086C73.4426 127.086 72.0156 127.659 70.9218 128.607L51.9845 117.784C52.0522 117.419 52.0887 117.049 52.0887 116.669C52.0887 113.956 50.3491 111.638 47.922 110.779V89.2319C50.3491 88.3726 52.0887 86.0549 52.0887 83.3413C52.0887 82.961 52.0522 82.5912 51.9845 82.2267L70.9218 71.4037C72.0156 72.3517 73.4426 72.9245 75 72.9245C76.5573 72.9245 77.9844 72.3516 79.0781 71.4037L98.0154 82.2267C97.9477 82.586 97.9113 82.961 97.9113 83.3413C97.9113 86.0549 99.6509 88.3725 102.078 89.2319V110.779C99.6561 111.633 97.9165 113.95 97.9165 116.669ZM43.7498 83.3359C43.7498 82.1849 44.6821 81.2526 45.8331 81.2526C46.9842 81.2526 47.9165 82.1849 47.9165 83.3359C47.9165 84.487 46.9842 85.4193 45.8331 85.4193C44.6821 85.4193 43.7498 84.487 43.7498 83.3359ZM18.7498 60.7786V39.2266C21.1769 38.3672 22.9165 36.0495 22.9165 33.3359C22.9165 32.9557 22.88 32.5859 22.8123 32.2213L41.7496 21.3984C42.8486 22.3463 44.2756 22.9192 45.833 22.9192C47.3903 22.9192 48.8174 22.3463 49.9111 21.3984L68.8484 32.2213C68.7859 32.5859 68.7495 32.9557 68.7495 33.3359C68.7495 36.0495 70.4891 38.3671 72.9161 39.2266V60.7786C70.4891 61.638 68.7495 63.9556 68.7495 66.6692C68.7495 67.0495 68.7859 67.4193 68.8536 67.7838L49.9163 78.6068C48.8174 77.6588 47.3903 77.086 45.833 77.086C44.2756 77.086 42.8486 77.6589 41.7548 78.6068L22.8122 67.7838C22.8799 67.4193 22.9163 67.0495 22.9163 66.6692C22.9163 63.9556 21.1769 61.638 18.7498 60.7786ZM72.9165 66.6692C72.9165 65.5182 73.8488 64.5859 74.9998 64.5859C76.1508 64.5859 77.0831 65.5182 77.0831 66.6692C77.0831 67.8203 76.1508 68.7526 74.9998 68.7526C73.8488 68.7526 72.9165 67.8203 72.9165 66.6692ZM133.332 31.2532C134.484 31.2532 135.416 32.1855 135.416 33.3366C135.416 34.4824 134.484 35.4199 133.332 35.4199C132.187 35.4199 131.249 34.4824 131.249 33.3366C131.249 32.1855 132.181 31.2532 133.332 31.2532ZM104.166 14.5866C105.317 14.5866 106.249 15.5189 106.249 16.6699C106.249 17.821 105.317 18.7532 104.166 18.7532C103.015 18.7532 102.082 17.821 102.082 16.6699C102.082 15.5189 103.015 14.5866 104.166 14.5866ZM74.9991 31.2532C76.1502 31.2532 77.0825 32.1855 77.0825 33.3366C77.0825 34.4824 76.1502 35.4199 74.9991 35.4199C73.8533 35.4199 72.9158 34.4824 72.9158 33.3366C72.9158 32.1855 73.8481 31.2532 74.9991 31.2532ZM45.8325 14.5866C46.9835 14.5866 47.9158 15.5189 47.9158 16.6699C47.9158 17.821 46.9835 18.7532 45.8325 18.7532C44.6814 18.7532 43.7491 17.821 43.7491 16.6699C43.7491 15.5189 44.6814 14.5866 45.8325 14.5866ZM16.6658 31.2532C17.8168 31.2532 18.7491 32.1855 18.7491 33.3366C18.7491 34.4824 17.8168 35.4199 16.6658 35.4199C15.5148 35.4199 14.5825 34.4824 14.5825 33.3366C14.5825 32.1855 15.5148 31.2532 16.6658 31.2532ZM16.6658 68.7533C15.5148 68.7533 14.5825 67.821 14.5825 66.6699C14.5825 65.5189 15.5148 64.5866 16.6658 64.5866C17.8168 64.5866 18.7491 65.5189 18.7491 66.6699C18.7491 67.821 17.8168 68.7533 16.6658 68.7533ZM45.8325 118.753C44.6814 118.753 43.7491 117.821 43.7491 116.67C43.7491 115.519 44.6814 114.587 45.8325 114.587C46.9835 114.587 47.9158 115.519 47.9158 116.67C47.9158 117.816 46.9835 118.753 45.8325 118.753ZM74.9991 135.42C73.8481 135.42 72.9158 134.488 72.9158 133.337C72.9158 132.186 73.8481 131.253 74.9991 131.253C76.1502 131.253 77.0825 132.186 77.0825 133.337C77.0825 134.488 76.1502 135.42 74.9991 135.42ZM104.166 118.753C103.015 118.753 102.082 117.821 102.082 116.67C102.082 115.519 103.015 114.587 104.166 114.587C105.317 114.587 106.249 115.519 106.249 116.67C106.249 117.816 105.317 118.753 104.166 118.753ZM104.166 85.4199C103.015 85.4199 102.082 84.4876 102.082 83.3366C102.082 82.1855 103.015 81.2533 104.166 81.2533C105.317 81.2533 106.249 82.1855 106.249 83.3366C106.249 84.4876 105.317 85.4199 104.166 85.4199ZM133.332 68.7533C132.181 68.7533 131.249 67.821 131.249 66.6699C131.249 65.5189 132.181 64.5866 133.332 64.5866C134.484 64.5866 135.416 65.5189 135.416 66.6699C135.416 67.821 134.484 68.7533 133.332 68.7533Z" fill="white"/>
</svg>
