<svg width="150" height="150" viewBox="0 0 150 150" fill="none" xmlns="http://www.w3.org/2000/svg">
<path fill-rule="evenodd" clip-rule="evenodd" d="M28.9286 42.75C21.298 42.75 15.1071 36.5592 15.1071 28.9286C15.1071 21.298 21.298 15.1071 28.9286 15.1071C36.5592 15.1071 42.75 21.298 42.75 28.9286C42.75 36.5592 36.5592 42.75 28.9286 42.75ZM28.9286 134.893C21.298 134.893 15.1071 128.708 15.1071 121.071C15.1071 113.435 21.298 107.25 28.9286 107.25C36.5592 107.25 42.75 113.435 42.75 121.071C42.75 128.708 36.5592 134.893 28.9286 134.893ZM75 134.893C67.3636 134.893 61.1786 128.708 61.1786 121.071C61.1786 113.435 67.3636 107.25 75 107.25H121.071C128.708 107.25 134.893 113.435 134.893 121.071C134.893 128.708 128.708 134.893 121.071 134.893H75ZM28.9286 61.1786H75C82.6364 61.1786 88.8214 67.3636 88.8214 75C88.8214 82.6364 82.6364 88.8214 75 88.8214H28.9286C21.298 88.8214 15.1071 82.6364 15.1071 75C15.1071 67.3636 21.298 61.1786 28.9286 61.1786ZM121.071 88.8214C113.435 88.8214 107.25 82.6364 107.25 75C107.25 67.3636 113.435 61.1786 121.071 61.1786C128.708 61.1786 134.893 67.3636 134.893 75C134.893 82.6364 128.708 88.8214 121.071 88.8214ZM75 15.1071H121.071C128.708 15.1071 134.893 21.298 134.893 28.9286C134.893 36.5592 128.708 42.75 121.071 42.75H75C67.3636 42.75 61.1786 36.5592 61.1786 28.9286C61.1786 21.298 67.3636 15.1071 75 15.1071ZM10.5 28.9286C10.5 18.7526 18.7526 10.5 28.9286 10.5C39.1045 10.5 47.3571 18.7526 47.3571 28.9286C47.3571 39.1045 39.1045 47.3571 28.9286 47.3571C18.7526 47.3571 10.5 39.1045 10.5 28.9286ZM10.5 121.071C10.5 110.895 18.7526 102.643 28.9286 102.643C39.1045 102.643 47.3571 110.895 47.3571 121.071C47.3571 131.247 39.1045 139.5 28.9286 139.5C18.7526 139.5 10.5 131.247 10.5 121.071ZM75 102.643C64.824 102.643 56.5714 110.895 56.5714 121.071C56.5714 131.247 64.824 139.5 75 139.5H121.071C131.247 139.5 139.5 131.247 139.5 121.071C139.5 110.895 131.247 102.643 121.071 102.643H75ZM10.5 75C10.5 64.824 18.7526 56.5714 28.9286 56.5714H75C85.176 56.5714 93.4286 64.824 93.4286 75C93.4286 85.176 85.176 93.4286 75 93.4286H28.9286C18.7526 93.4286 10.5 85.176 10.5 75ZM121.071 56.5714C110.895 56.5714 102.643 64.824 102.643 75C102.643 85.176 110.895 93.4286 121.071 93.4286C131.247 93.4286 139.5 85.176 139.5 75C139.5 64.824 131.247 56.5714 121.071 56.5714ZM56.5714 28.9286C56.5714 18.7526 64.824 10.5 75 10.5H121.071C131.247 10.5 139.5 18.7526 139.5 28.9286C139.5 39.1045 131.247 47.3571 121.071 47.3571H75C64.824 47.3571 56.5714 39.1045 56.5714 28.9286Z" fill="white"/>
</svg>
