<svg width="150" height="150" viewBox="0 0 150 150" fill="none" xmlns="http://www.w3.org/2000/svg">
<path d="M127.603 88.8624V67.0958L128.364 66.8148C130.155 66.1575 131.319 64.5096 131.319 62.6092C131.319 60.7088 130.156 59.0609 128.364 58.4037L78.0359 40.1144C75.7946 39.2952 73.5246 39.2952 71.2785 40.1144L20.9549 58.4134C19.1638 59.0707 18 60.7186 18 62.619C18 64.5193 19.1637 66.1673 20.9549 66.8245L36.1217 72.3351V90.1622C36.1217 93.2104 37.4435 95.9301 39.8477 97.8304C50.5895 106.28 62.6243 110.5 74.6551 110.5C86.6804 110.5 98.7349 106.28 109.462 97.8304C111.866 95.9396 113.188 93.2104 113.188 90.1622V72.34L123.916 68.4392V88.8622C121.368 89.6529 119.5 91.9819 119.5 94.7777V101.774C119.5 104.237 121.521 106.251 124.002 106.251H127.498C129.974 106.251 132 104.242 132 101.774V94.7777C132.019 91.9819 130.155 89.6436 127.603 88.8624ZM21.679 62.6235C21.679 62.2567 21.8753 61.9757 22.2202 61.8566L72.5438 43.5393C73.9805 43.0154 75.3262 43.0154 76.7629 43.5393L127.091 61.8432C127.436 61.967 127.633 62.2433 127.633 62.61C127.633 62.9768 127.436 63.2578 127.091 63.3769L125.487 63.9627L74.7663 60.7811C73.751 60.7192 72.8793 61.486 72.8172 62.4861C72.7549 63.4958 73.526 64.3627 74.5316 64.4246L116.891 67.0822L76.7776 81.6892C75.3409 82.2132 73.9952 82.2132 72.5585 81.6892L22.2202 63.3902C21.8753 63.2569 21.679 62.9759 21.679 62.6235ZM109.519 90.1671C109.519 92.1294 108.734 93.7535 107.192 94.9585C87.1359 110.747 62.199 110.747 42.1417 94.9585C40.5948 93.7392 39.8142 92.1294 39.8142 90.1671L39.8094 73.6689L71.2931 85.1187C72.409 85.5188 73.5344 85.7284 74.6646 85.7284C75.7949 85.7284 76.9202 85.5188 78.0361 85.1187L109.52 73.6689L109.519 90.1671ZM128.341 101.76C128.341 102.212 127.972 102.579 127.517 102.579H124.021C123.566 102.579 123.197 102.212 123.197 101.76V94.7632C123.197 93.3486 124.352 92.2007 125.774 92.2007C127.196 92.2007 128.351 93.3486 128.351 94.7632L128.355 101.76H128.341Z" fill="white"/>
</svg>
