<svg width="150" height="150" viewBox="0 0 150 150" fill="none" xmlns="http://www.w3.org/2000/svg">
<path d="M97.8854 32.3212H87.9079C85.8645 32.3212 84.1981 33.9881 84.1981 36.0318C84.1981 38.0756 85.8646 39.7425 87.9079 39.7425H97.8854C103.892 39.7425 109.501 42.4312 113.261 47.142L115.341 49.7365L42.26 122.832L39.666 120.752C34.9708 116.984 32.268 111.381 32.268 105.373V100.96C32.268 98.916 30.6014 97.2492 28.5581 97.2492C26.5147 97.2492 24.8482 98.9161 24.8482 100.96V105.373C24.8482 120.325 37.014 132.5 51.9693 132.5H97.879C112.827 132.5 125 120.332 125 105.373V59.4543C125 44.503 112.834 32.3277 97.879 32.3277L97.8854 32.3212ZM103.769 124.197C101.856 124.791 99.8927 125.088 97.8854 125.088H50.49L81.4155 94.1561L109.609 122.355L103.747 124.189L103.769 124.197ZM117.587 105.382C117.587 107.382 117.29 109.368 116.696 111.267L114.862 117.108L86.6693 88.909L117.595 57.9771V105.382L117.587 105.382Z" fill="white"/>
<path d="M35.9695 78.7041C39.846 78.7041 43.5341 77.0155 46.063 74.102C54.0913 64.8254 61.9386 54.8104 61.9386 43.4522C61.9386 29.3707 50.9177 17.9638 36.8395 17.5H35.0788C21.0363 17.9638 10 29.3711 10 43.4522C10 54.8088 17.8473 64.8106 25.8757 74.102C28.419 77.0299 32.0931 78.7041 35.9695 78.7041ZM36.4912 24.9222C46.6208 25.2556 54.5043 33.4016 54.5043 43.4537C54.5043 52.2447 47.5483 61.0066 40.4474 69.2389C39.3533 70.4999 37.7229 71.2246 35.955 71.2246C34.1942 71.2246 32.5639 70.4999 31.4625 69.2389C24.3399 61.0204 17.4056 52.2438 17.4056 43.4537C17.4056 33.3943 25.2312 25.2556 35.2159 24.9222H36.4912Z" fill="white"/>
<path d="M35.9695 47.1637C38.0129 47.1637 39.6794 45.4969 39.6794 43.4531C39.6794 41.4094 38.0128 39.7425 35.9695 39.7425C33.9262 39.7425 32.2596 41.4094 32.2596 43.4531C32.2596 45.4969 33.9262 47.1637 35.9695 47.1637Z" fill="white"/>
</svg>
