<svg width="150" height="150" viewBox="0 0 150 150" fill="none" xmlns="http://www.w3.org/2000/svg">
<path d="M86.5521 23.7716C67.5881 23.7716 50.1615 34.2716 41.2921 51.0423C41.0525 51.5006 41.0005 52.0423 41.1567 52.5371C41.313 53.0371 41.6567 53.4486 42.1203 53.6934C43.0786 54.1986 44.2609 53.834 44.7713 52.8808C47.0943 48.4902 50.0473 44.5683 53.4849 41.1986C57.1516 44.3027 61.2141 46.8496 65.5423 48.7923C64.8652 51.2298 64.2766 53.8079 63.787 56.5163V56.5111C63.6933 57.0267 63.8079 57.5528 64.0996 57.9851C64.3964 58.4122 64.8548 58.7039 65.3652 58.7976C66.4277 58.9851 67.4433 58.282 67.636 57.2195C68.0735 54.782 68.5995 52.4643 69.1985 50.2716C74.7193 52.2612 80.5892 53.3028 86.5532 53.3028C92.5168 53.3028 98.3761 52.2611 103.892 50.2768C105.704 56.9435 106.814 64.7195 106.965 73.0421H82.7301C82.2093 73.0369 81.7093 73.2453 81.3395 73.6151C80.9697 73.9848 80.7613 74.4849 80.7613 75.0109C80.7665 76.0943 81.6467 76.964 82.7301 76.964H106.965C106.814 85.2817 105.699 93.052 103.892 99.724C98.3763 97.7344 92.5116 96.6928 86.5479 96.6928H86.0583H86.0635C85.5427 96.698 85.0479 96.9063 84.6832 97.2813C84.3186 97.6511 84.1155 98.1511 84.1207 98.672C84.1259 99.1929 84.3395 99.6876 84.7093 100.052C85.0843 100.417 85.5843 100.62 86.1051 100.615H86.553C92.1312 100.615 97.6156 101.599 102.766 103.485C102.11 105.464 101.386 107.328 100.605 109.042C98.6571 113.328 96.3549 116.719 93.9331 118.969C91.5112 121.219 89.0633 122.313 86.5476 122.313C83.7246 122.313 80.7924 120.891 77.9173 117.714L77.9277 117.709C77.2038 116.906 75.9693 116.844 75.1621 117.563C74.7767 117.912 74.5423 118.401 74.5163 118.922C74.485 119.443 74.6673 119.953 75.0215 120.339C75.235 120.573 75.4486 120.807 75.6673 121.026C74.9955 120.865 74.3236 120.703 73.6621 120.516H73.6569C73.1517 120.37 72.6153 120.432 72.1569 120.688C71.7038 120.943 71.3705 121.37 71.2299 121.875C70.9382 122.917 71.5424 124 72.5892 124.292C77.1308 125.583 81.834 126.234 86.5532 126.234C114.804 126.234 137.747 103.281 137.747 75.0105C137.747 74.9532 137.747 74.9011 137.741 74.8438C137.694 59.9585 131.288 46.5571 121.101 37.2185H121.107C121.096 37.2132 121.091 37.2028 121.08 37.1976C111.976 28.8591 99.8512 23.7656 86.5538 23.7656L86.5521 23.7716ZM86.5521 27.6987C89.0625 27.6987 91.5157 28.8029 93.9376 31.0528C96.3595 33.3028 98.6564 36.6935 100.609 40.9851C101.385 42.6934 102.104 44.5476 102.755 46.5163C97.6095 48.3966 92.1303 49.3808 86.5527 49.3808C80.9745 49.3808 75.4901 48.3913 70.3393 46.5111C71.8185 42.084 73.6049 38.308 75.5841 35.3548C79.0112 30.2403 82.8393 27.6986 86.5581 27.6986L86.5521 27.6987ZM97.401 28.9487C104.599 30.6362 111.166 33.9695 116.677 38.532C113.526 41.1414 110.068 43.308 106.401 45.006C105.729 43.0164 104.984 41.1311 104.182 39.3654C102.266 35.1571 100.01 31.6154 97.4063 28.9487H97.401ZM75.7131 28.9643C74.5151 30.1883 73.3797 31.5946 72.3276 33.1674C70.1453 36.4278 68.2495 40.4174 66.6973 45.0059C63.0359 43.3133 59.5828 41.1518 56.4369 38.5475C62.015 33.933 68.6089 30.6362 75.7131 28.9643ZM119.62 41.1831C127.953 49.3446 133.276 60.5685 133.786 73.0431H110.896C110.745 64.1994 109.562 55.9391 107.573 48.7885C111.896 46.8406 115.953 44.2885 119.625 41.1843L119.62 41.1831ZM46.2037 58.3085C37.5111 58.3085 28.8077 61.6262 22.1877 68.2511C11.1513 79.2981 9.09398 96.4485 17.1044 109.772L14.4169 121.726V121.731C14.2711 122.387 14.469 123.074 14.943 123.548C15.4169 124.028 16.1044 124.226 16.7607 124.075L28.7086 121.366C42.0263 129.387 59.1566 127.33 70.1979 116.283V116.288H70.2135C83.4531 103.038 83.4375 81.5014 70.1979 68.2521C63.5782 61.627 54.8957 58.3085 46.2037 58.3085ZM46.2037 62.2043C53.886 62.2043 61.5637 65.1418 67.4331 71.0221C79.1779 82.7721 79.1779 101.777 67.4331 113.527C57.48 123.486 41.9851 125.189 30.1051 117.642L30.1103 117.637C30.1051 117.632 30.0998 117.632 30.0946 117.626C29.9228 117.522 29.7405 117.439 29.5426 117.392C29.3446 117.34 29.1415 117.319 28.9332 117.329C28.829 117.34 28.7196 117.35 28.6155 117.376L18.9176 119.574L21.1207 109.861C21.2196 109.423 21.1623 108.96 20.9592 108.558V108.553C20.9436 108.522 20.928 108.496 20.9123 108.47C20.9123 108.465 20.9071 108.46 20.9071 108.454C20.8915 108.423 20.8759 108.397 20.8603 108.371C13.3133 96.4855 15.0217 80.975 24.9696 71.0163C30.8393 65.1414 38.5216 62.1986 46.2043 62.1986L46.2037 62.2043ZM110.892 76.9643H133.782C133.277 89.4435 127.954 100.667 119.626 108.824C115.96 105.715 111.897 103.163 107.569 101.21C109.559 94.0587 110.736 85.7978 110.887 76.9591L110.892 76.9643ZM37.5892 79.5061C37.0684 79.5061 36.5684 79.7092 36.1985 80.079C35.8287 80.4436 35.6204 80.9436 35.6204 81.4644V103.074C35.6204 103.589 35.8287 104.089 36.1985 104.459C36.5683 104.824 37.0683 105.032 37.5892 105.027C38.6673 105.022 39.5422 104.152 39.5422 103.074V81.4645C39.5422 80.3864 38.6672 79.5114 37.5892 79.5061ZM54.9584 79.5061C54.4376 79.5061 53.9376 79.7092 53.5677 80.079C53.1979 80.4436 52.9896 80.9436 52.9896 81.4644V103.074C52.9896 103.589 53.1979 104.089 53.5677 104.459C53.9375 104.824 54.4375 105.032 54.9584 105.027C56.0365 105.027 56.9114 104.152 56.9114 103.074V81.4645C56.9114 80.3864 56.0365 79.5114 54.9584 79.5061ZM28.9064 86.4279C27.8231 86.4227 26.9428 87.2977 26.9376 88.381V96.157C26.9376 96.6726 27.1459 97.1726 27.5157 97.5373C27.8855 97.907 28.3855 98.1102 28.9064 98.1102C29.9793 98.105 30.8542 97.23 30.8594 96.1571V88.3811C30.8542 87.303 29.9792 86.4331 28.9064 86.4279ZM46.2757 86.4279C45.1924 86.4227 44.3121 87.2977 44.3069 88.381V96.157C44.3069 96.6726 44.5153 97.1726 44.885 97.5373C45.2548 97.907 45.7548 98.1102 46.2757 98.1102C47.3538 98.105 48.2236 97.23 48.2288 96.1571V88.3811C48.2236 87.303 47.3486 86.4331 46.2757 86.4279ZM63.6397 86.4279C62.5564 86.4227 61.6761 87.2977 61.6709 88.381V96.157C61.6761 96.6726 61.8845 97.1726 62.249 97.5373C62.6188 97.907 63.1188 98.1102 63.6397 98.1102C64.7178 98.105 65.5876 97.23 65.5928 96.1571V88.3811C65.5876 87.303 64.7178 86.4331 63.6397 86.4279ZM106.405 104.99C110.072 106.688 113.53 108.86 116.681 111.475C111.171 116.037 104.608 119.376 97.4104 121.063C100.009 118.402 102.259 114.866 104.171 110.662C104.978 108.886 105.723 106.99 106.4 104.99H106.405Z" fill="white"/>
</svg>
