<svg width="150" height="150" viewBox="0 0 150 150" fill="none" xmlns="http://www.w3.org/2000/svg">
<path d="M69.3938 131.435H19.0918V14.5025C18.8984 9.13107 11.1719 9.20072 11 14.5025V135.467C11 137.695 12.8107 139.5 15.0459 139.5H69.3946C74.7461 139.334 74.7345 131.596 69.3938 131.435Z" fill="white"/>
<path d="M43.1671 121.352C45.4023 121.352 47.213 119.547 47.213 117.32V28.6146C47.213 26.3868 45.4023 24.582 43.1671 24.582C40.9319 24.582 39.1212 26.3868 39.1212 28.6146V117.325C39.1212 119.553 40.9319 121.358 43.1671 121.358V121.352Z" fill="white"/>
<path d="M71.2851 66.1286C73.5202 66.1286 75.3309 64.3239 75.3309 62.0961V44.7398C75.3309 42.5119 73.5202 40.7072 71.2851 40.7072C69.0499 40.7072 67.2392 42.5119 67.2392 44.7398V62.0961C67.2392 64.3239 69.0499 66.1286 71.2851 66.1286Z" fill="white"/>
<path d="M137.658 129.427C137.658 129.427 129.781 122.444 125.462 118.615C134.306 105.451 133.972 86.3753 120.105 74.1985C97.8285 54.2977 62.2636 71.8153 64.1824 101.57C64.897 118.861 80.4408 133.584 97.7638 133.262C98.4677 133.262 99.1715 133.241 99.8808 133.198C108.053 132.71 114.947 129.519 120.186 124.742L132.275 135.463C133.049 136.148 134.005 136.48 134.962 136.48C138.594 136.545 140.437 131.837 137.654 129.433L137.658 129.427ZM99.3865 125.143C85.6205 126.273 72.8174 114.818 72.2575 101.07C71.2958 86.3598 83.138 73.7264 97.8225 73.7854C111.003 73.5444 122.802 84.7584 123.345 97.9115C124.221 112.06 113.475 124.275 99.3865 125.148V125.143Z" fill="white"/>
</svg>
