<svg width="150" height="150" viewBox="0 0 150 150" fill="none" xmlns="http://www.w3.org/2000/svg">
<path d="M128.855 139H19.1436C14.1 139 10 134.9 10 129.856V20.7187C10 15.3624 14.3625 11 19.7187 11H114.744C120.1 11 124.463 15.3626 124.463 20.7187V40.0691H128.863C133.9 40.0691 138 44.1691 138 49.2128V129.862C138 134.9 133.899 139 128.855 139ZM13.1997 43.2688V129.856C13.1997 133.137 15.8622 135.8 19.1433 135.8H128.855C132.136 135.8 134.799 133.137 134.799 129.856V49.2128C134.799 45.9378 132.136 43.2691 128.855 43.2691L13.1997 43.2688ZM13.1997 40.0688H121.262V20.7184C121.262 17.1246 118.337 14.1997 114.743 14.1997H19.7177C16.124 14.1997 13.199 17.1246 13.199 20.7184L13.1997 40.0688Z" fill="white"/>
<path d="M46.0363 42.768C45.1488 42.768 44.4363 42.0492 44.4363 41.168V29.9867C44.4363 28.793 43.4613 27.8179 42.2676 27.8179H28.1614C26.9676 27.8179 25.9926 28.7929 25.9926 29.9867V41.168C25.9926 42.0492 25.2801 42.768 24.3926 42.768C23.5051 42.768 22.7926 42.0492 22.7926 41.168V29.9867C22.7926 27.0242 25.1988 24.6179 28.1614 24.6179H42.2676C45.2301 24.6179 47.6363 27.0242 47.6363 29.9867V41.168C47.6363 42.0492 46.9238 42.768 46.0363 42.768Z" fill="white"/>
<path d="M67.6875 42.768C66.8 42.768 66.0875 42.0492 66.0875 41.168V29.9867C66.0875 28.793 65.1125 27.8179 63.9187 27.8179H49.8125C48.6187 27.8179 47.6437 28.7929 47.6437 29.9867V41.168C47.6437 42.0492 46.9312 42.768 46.0437 42.768C45.1562 42.768 44.4437 42.0492 44.4437 41.168V29.9867C44.4437 27.0242 46.8499 24.6179 49.8125 24.6179H63.9187C66.8812 24.6179 69.2875 27.0242 69.2875 29.9867V41.168C69.2875 42.0492 68.575 42.768 67.6875 42.768Z" fill="white"/>
<path d="M89.3306 42.768C88.4431 42.768 87.7306 42.0492 87.7306 41.168V29.9867C87.7306 28.793 86.7556 27.8179 85.5618 27.8179H71.4556C70.2619 27.8179 69.2875 28.7929 69.2875 29.9867V41.168C69.2875 42.0492 68.575 42.768 67.6875 42.768C66.8 42.768 66.0875 42.0492 66.0875 41.168V29.9867C66.0875 27.0242 68.4931 24.6179 71.4556 24.6179H85.5618C88.5243 24.6179 90.9306 27.0242 90.9306 29.9867V41.168C90.9306 42.0492 90.2181 42.768 89.3306 42.768Z" fill="white"/>
<path d="M110.974 42.768C110.086 42.768 109.374 42.0492 109.374 41.168V29.9867C109.374 28.793 108.399 27.8179 107.205 27.8179H93.0987C91.905 27.8179 90.9306 28.7929 90.9306 29.9867V41.168C90.9306 42.0492 90.2181 42.768 89.3306 42.768C88.4431 42.768 87.7306 42.0492 87.7306 41.168V29.9867C87.7306 27.0242 90.1362 24.6179 93.0987 24.6179H107.205C110.167 24.6179 112.574 27.0242 112.574 29.9867V41.168C112.574 42.0492 111.861 42.768 110.974 42.768Z" fill="white"/>
<path d="M73.9994 122.944C73.1119 122.944 72.3994 122.225 72.3994 121.344V76.6944C72.3994 75.8131 73.1119 75.0944 73.9994 75.0944C74.8869 75.0944 75.5994 75.8131 75.5994 76.6944V121.344C75.5994 122.231 74.8869 122.944 73.9994 122.944Z" fill="white"/>
<path d="M73.9994 103.406C69.1745 103.406 64.6932 101.006 62.0057 96.9752C61.512 96.2377 61.712 95.244 62.4432 94.7565C63.1807 94.2627 64.1682 94.4627 64.6619 95.2002C66.7619 98.3314 70.2494 100.206 73.9993 100.206C77.7492 100.206 81.2367 98.3314 83.3367 95.2002C83.8242 94.469 84.818 94.2627 85.5555 94.7565C86.293 95.244 86.4867 96.244 85.993 96.9752C83.3054 101 78.8244 103.406 73.9994 103.406Z" fill="white"/>
<path d="M73.9994 88.3056C70.5057 88.3056 67.2558 86.5619 65.3057 83.643C64.8182 82.9055 65.012 81.9181 65.7495 81.4243C66.4869 80.9306 67.4744 81.1306 67.9682 81.8681C69.3244 83.8993 71.5744 85.1055 73.9993 85.1055C76.4243 85.1055 78.6744 83.893 80.0305 81.8681C80.518 81.1306 81.5118 80.9306 82.2492 81.4243C82.9867 81.9118 83.1805 82.9056 82.693 83.643C80.7429 86.5618 77.4932 88.3056 73.9994 88.3056Z" fill="white"/>
<path d="M73.9994 115.75C60.4995 115.75 49.5243 104.769 49.5243 91.2688C49.5243 73.9008 72.0362 55.5248 72.9994 54.7504C73.5869 54.2754 74.4244 54.2754 75.0119 54.7504C75.9744 55.5254 98.487 73.8944 98.487 91.2688C98.4745 104.769 87.4999 115.75 73.9994 115.75ZM73.9994 58.0944C69.6558 61.8507 52.7243 77.3936 52.7243 91.2688C52.7243 103 62.268 112.55 73.9994 112.55C85.7309 112.55 95.2746 103.007 95.2746 91.2688C95.2746 77.3813 78.3498 61.8496 73.9994 58.0944Z" fill="white"/>
</svg>
